<?xml version="1.0" encoding="UTF-8"?>
<svg version="1.1" xmlns="http://www.w3.org/2000/svg" width="500" height="620">
<path d="M0 0 C-2.14072301 2.35479531 -4.1394109 3.64062915 -7 5 C2.49432706 6.346792 11.43532253 7.52869575 21 6 C18.69 5.34 16.38 4.68 14 4 C17.41139003 2.90348177 20.20655581 3.05784527 23.75 3.4375 C24.73484375 3.53933594 25.7196875 3.64117188 26.734375 3.74609375 C27.48203125 3.82988281 28.2296875 3.91367187 29 4 C28.67 4.99 28.34 5.98 28 7 C25.12069515 7.88117927 22.37442971 8.58124222 19.4375 9.1875 C18.22803711 9.45336914 18.22803711 9.45336914 16.99414062 9.72460938 C14.9986314 10.16149601 12.99960644 10.58226673 11 11 C16.29829762 11.16569411 21.22554108 11.06642387 26.4375 10 C33.96248697 8.49713433 41.4737079 8.3726936 49 10 C49 8.68 49 7.36 49 6 C53.80801205 6.66645248 58.30067617 7.92967743 62.8984375 9.44140625 C63.65105865 9.68737045 64.40367981 9.93333466 65.17910767 10.18675232 C66.77174999 10.70967252 68.36356416 11.23512095 69.95458984 11.76293945 C72.32925998 12.5473902 74.70919356 13.31400282 77.08984375 14.08007812 C85.65663199 16.88837693 93.73089872 20.04046751 101.6434021 24.39466858 C108.11207801 27.87709143 112.75304756 28.44443156 119.75 26.421875 C125.30674949 25.37998447 132.19566552 25.83870632 137 29 C138.1328125 30.734375 138.1328125 30.734375 139.125 32.75 C142.15808456 37.99331336 146.73260859 40.29982266 152 43 C148.535 39.535 148.535 39.535 145 36 C160.95036611 36 181.88720194 59.71090497 193 70.625 C213.48335501 91.13284199 228.03233068 115.55349694 237 143 C236.34 143.33 235.68 143.66 235 144 C234.01 142.35 233.02 140.7 232 139 C232.02518782 148.94918856 233.11010877 157.45131263 236.55175781 166.80371094 C240.08736247 176.59754756 241.96926234 186.8081502 244 197 C243.34 197 242.68 197 242 197 C241.69932617 195.93023926 241.69932617 195.93023926 241.39257812 194.83886719 C235.94393388 175.59563951 230.43410512 156.23208269 220 139 C218.515 139.99 218.515 139.99 217 141 C214.66800612 141.07905064 212.33167378 141.08798769 210 141 C209.77422598 146.4185766 210.53329887 150.77487721 212 156 C213.65 155.34 215.3 154.68 217 154 C221.63850099 160.59103239 222.4909888 167.59441448 223.75 175.4375 C223.97140858 176.75476761 224.1940546 178.07182786 224.41796875 179.38867188 C224.95749183 182.59062408 225.48441156 185.79412199 226 189 C222.22929351 187.3327868 220.9290626 185.66521894 219 182 C220.66045102 188.25184968 222.62321693 193.48458765 226 199 C226.33 199.99 226.66 200.98 227 202 C226.49984375 202.37125 225.9996875 202.7425 225.484375 203.125 C223.33924182 205.83464191 223.86969086 207.62682329 224.25 211 C224.35828125 212.051875 224.4665625 213.10375 224.578125 214.1875 C224.92829219 217.07154493 224.92829219 217.07154493 226 220 C227.65 220 229.3 220 231 220 C230.41653249 225.13186195 229.23308296 229.75256104 227.5 234.625 C225.1086816 241.43000893 223.86971425 247.05942486 223.9375 254.3125 C223.95103516 256.19388672 223.95103516 256.19388672 223.96484375 258.11328125 C223.97644531 259.06589844 223.98804688 260.01851563 224 261 C222.33167423 258.49751135 221.37618326 256.58850813 220.375 253.8125 C220.11460937 253.09707031 219.85421875 252.38164062 219.5859375 251.64453125 C219.39257812 251.10183594 219.19921875 250.55914062 219 250 C219.03480469 251.24394531 219.06960938 252.48789062 219.10546875 253.76953125 C219.47084991 272.51697496 219.47084991 272.51697496 216 280 C215.34 280.33 214.68 280.66 214 281 C214.34224609 279.15535156 214.34224609 279.15535156 214.69140625 277.2734375 C214.98229307 275.64071796 215.27262858 274.00790012 215.5625 272.375 C215.71396484 271.56675781 215.86542969 270.75851562 216.02148438 269.92578125 C216.82579636 265.32436851 217.12893239 261.6203988 216 257 C215.88785156 258.36318359 215.88785156 258.36318359 215.7734375 259.75390625 C214.58209817 271.14170868 211.1108096 280.62870811 206.12109375 290.890625 C205.49671309 292.1767521 204.87300647 293.46320667 204.25 294.75 C203.9499707 295.36818604 203.64994141 295.98637207 203.34082031 296.62329102 C200.83612833 301.96175341 199.59523873 307.15694224 199 313 C195.67364118 311.47427344 194.04436998 310.06655496 192 307 C188.3945261 311.88268974 186.54953783 315.68764154 186.171875 321.76171875 C185.78979487 326.73744402 184.52594561 331.66980752 182 336 C181.34 335.67 180.68 335.34 180 335 C180.33 332.69 180.66 330.38 181 328 C176.3924384 331.8682394 172.10113485 335.90560855 167.9375 340.25 C143.59357941 365.07729135 108.35316296 379.83703768 73.71362305 380.24169922 C52.66209652 380.29215047 34.14965821 376.95646093 14 371 C15.09107377 371.9468982 16.18386263 372.89182034 17.27734375 373.8359375 C17.88570068 374.3623584 18.49405762 374.8887793 19.12084961 375.43115234 C33.71269092 387.61345353 54.12248127 388.21647461 72.3125 388.625 C73.74676504 388.663312 75.18101033 388.70237061 76.61523438 388.7421875 C80.07663898 388.83669597 83.5381972 388.92122806 87 389 C83.13964309 393.41302291 78.09522333 393.75383647 72.46435547 394.20166016 C69.78484761 394.3040778 67.11889273 394.32908691 64.4375 394.3125 C63.47295898 394.30686035 62.50841797 394.3012207 61.51464844 394.29541016 C25.56059045 393.69239457 -8.61315929 374.51746552 -33.18359375 349.15234375 C-37.44280428 344.5544804 -40.76907849 339.35952862 -44 334 C-43.01 333.67 -42.02 333.34 -41 333 C-36.43323617 337.46000831 -32.03895573 341.99726673 -27.875 346.8359375 C-24.31333034 350.9466979 -20.64665814 354.96469576 -17 359 C-17.41894531 358.44828125 -17.83789062 357.8965625 -18.26953125 357.328125 C-20.12365076 354.83364367 -21.90966177 352.29935294 -23.6875 349.75 C-24.62142578 348.41195312 -24.62142578 348.41195312 -25.57421875 347.046875 C-26.04472656 346.37140625 -26.51523438 345.6959375 -27 345 C-26.67 344.34 -26.34 343.68 -26 343 C-25.14019531 343.90621094 -24.28039062 344.81242187 -23.39453125 345.74609375 C-13.08321777 356.44121397 -2.68278416 364.85355745 11 371 C9.60230598 365.51050611 5.91370217 363.15747246 1.625 359.875 C0.16436643 358.72296251 -1.29394603 357.56797645 -2.75 356.41015625 C-3.471875 355.83668457 -4.19375 355.26321289 -4.9375 354.67236328 C-9.84796192 350.69075057 -14.42169302 346.35593207 -19 342 C-19.86109375 341.20335937 -20.7221875 340.40671875 -21.609375 339.5859375 C-40.3780531 321.69157671 -52.01548128 297.47750466 -53.10668945 271.45581055 C-53.77293224 242.58971388 -53.77293224 242.58971388 -49.58251953 235.65380859 C-48.03398697 233.0569945 -46.98288077 230.59726679 -45.94921875 227.76171875 C-45.57990234 226.77623047 -45.21058594 225.79074219 -44.83007812 224.77539062 C-44.07358078 222.73090804 -43.32348281 220.68404519 -42.58007812 218.63476562 C-39.31655702 209.98277098 -34.65168802 203.85241557 -28.62890625 196.98046875 C-26.64646439 194.57016175 -24.86580613 192.04686588 -23.0625 189.5 C-11.17796641 173.13368169 7.04701507 162.94371254 26.9453125 159.46875 C49.43270197 156.52543279 71.24708122 161.59381189 89.61279297 175.19433594 C95.36176255 179.65258021 100.45312542 184.31434377 105 190 C104.67 190.66 104.34 191.32 104 192 C103.17757813 191.40832031 102.35515625 190.81664062 101.5078125 190.20703125 C81.02201381 175.62941095 58.6651795 169.52595907 33.46484375 173.61328125 C12.60767706 177.91406925 -7.54297853 190.38625474 -19.59448242 207.98120117 C-30.30970664 224.38344065 -36.11824491 242.39965167 -35 262 C-34.34 261.67 -33.68 261.34 -33 261 C-32.87044922 262.76150391 -32.87044922 262.76150391 -32.73828125 264.55859375 C-30.3141921 293.73009474 -18.45445247 319.37835574 4.06640625 338.69921875 C25.26836068 356.0752319 49.8468292 362.82652776 77 361 C81.09144972 360.38368362 84.95433263 359.25993104 88.89453125 357.99609375 C91.65827521 357.10960984 94.2001719 356.59772094 97.0625 356.1875 C106.19458721 354.44660043 115.31747904 349.59609512 121.46875 342.64453125 C123.98134634 339.94605406 126.95088817 338.05348348 130 336 C130 339 130 339 128 341.1875 C127.34 341.785625 126.68 342.38375 126 343 C130.32088211 341.53840771 133.64255749 339.23329459 137.1875 336.4375 C137.75557373 335.99494873 138.32364746 335.55239746 138.90893555 335.09643555 C144.1550461 330.96507747 149.09452374 326.52813193 154 322 C155.4524359 320.68097676 156.91037991 319.36798089 158.375 318.0625 C158.98085938 317.51722656 159.58671875 316.97195313 160.2109375 316.41015625 C162 315 162 315 164.19140625 314.23046875 C164.78824219 313.82441406 165.38507813 313.41835938 166 313 C166.59648108 309.85877875 166.59648108 309.85877875 166.5625 306.25 C166.65734583 301.00558376 167.17909486 297.48484918 170 293 C172.58063369 290.85042984 175.56614455 289 179 289 C179.103125 288.18144531 179.20625 287.36289062 179.3125 286.51953125 C180.12341012 282.36822434 181.51022132 278.63405278 183 274.6875 C185.18460816 268.73780615 186.76772075 263.38767944 187 257 C186.01 258.98 185.02 260.96 184 263 C182.56103577 259.1276605 183.47441063 256.22813128 184.39453125 252.28125 C186.7323063 241.12459843 186.56756998 229.85279991 186.6875 218.5 C186.72075257 216.30857438 186.75524923 214.11716728 186.79101562 211.92578125 C186.8749951 206.6173151 186.94371328 201.30882833 187 196 C186.34 196 185.68 196 185 196 C184.91024902 195.39752441 184.82049805 194.79504883 184.72802734 194.17431641 C181.67543983 174.14432435 176.64711299 156.81503281 167 139 C166.52457764 138.09556152 166.52457764 138.09556152 166.03955078 137.17285156 C158.92125764 123.64477346 149.49101267 112.06632626 139 101 C138.30100586 100.25218262 138.30100586 100.25218262 137.58789062 99.48925781 C111.4114602 71.63658766 76.02530456 57.2551061 37.94775391 55.890625 C21.47465185 55.50101726 6.33997576 55.81601339 -9.35546875 61.29296875 C-12 62 -12 62 -15 61 C-11.7 59.68 -8.4 58.36 -5 57 C-19.05065659 58.41138529 -30.03938742 62.69178535 -42.09326172 69.75195312 C-47.85191888 73.06826629 -53.59890246 75.15968446 -60 77 C-56.37 76.67 -52.74 76.34 -49 76 C-52.54637698 80.41326913 -55.00393514 81.58444494 -60.58642578 82.25097656 C-61.40353027 82.3331543 -62.22063477 82.41533203 -63.0625 82.5 C-75.59820262 84.13893501 -87.59313077 87.87316588 -95.74609375 98.21484375 C-96.15988281 98.80394531 -96.57367188 99.39304687 -97 100 C-95.68 99.67 -94.36 99.34 -93 99 C-94.07401108 101.91517292 -94.77810176 103.77810176 -97 106 C-99.03125 106.45703125 -99.03125 106.45703125 -101.5 106.8125 C-127.24132208 111.68048641 -150.66454814 140.36517179 -166.25 159.6875 C-166.76997559 160.32969482 -167.28995117 160.97188965 -167.82568359 161.63354492 C-170.49141866 164.96593034 -172.91269233 168.26143181 -175 172 C-174.01 172.66 -173.02 173.32 -172 174 C-172.58641639 177.46998053 -173.47603032 180.35350632 -175.00390625 183.51953125 C-175.41116943 184.36837891 -175.81843262 185.21722656 -176.23803711 186.09179688 C-176.67510986 186.98962891 -177.11218262 187.88746094 -177.5625 188.8125 C-178.00924072 189.75029297 -178.45598145 190.68808594 -178.91625977 191.65429688 C-180.95085349 195.90078308 -183.0146832 200.10141243 -185.3359375 204.19921875 C-190.71237586 213.78473798 -192.60215968 222.50113279 -193.64501953 233.39550781 C-193.988323 236.88143104 -194.37674325 240.35940177 -194.77482605 243.83935547 C-196.73601099 261.09381775 -198.38396425 278.31000516 -198.4375 295.6875 C-198.44740967 296.93700439 -198.45731934 298.18650879 -198.4675293 299.47387695 C-198.41373242 314.20897727 -198.41373242 314.20897727 -192.75 327.375 C-190.30791343 330.95672697 -191.16323706 334.53999104 -191.625 338.625 C-192.58498195 347.17212901 -190.40393407 352.54522464 -186 360 C-186.99 360 -187.98 360 -189 360 C-185.1245308 373.32733422 -185.1245308 373.32733422 -177 384 C-174.24969303 384.91260186 -171.49816987 385.51443081 -168.671875 386.1484375 C-162.32607542 388.17092918 -159.68556874 393.59032666 -156.76171875 399.19921875 C-150.75585094 411.26755282 -150.75585094 411.26755282 -152 415 C-154.31 413.68 -156.62 412.36 -159 411 C-156.61121417 419.83850759 -151.47151017 427.75829536 -146 435 C-146.5259375 435.86625 -146.5259375 435.86625 -147.0625 436.75 C-148.13379321 438.88259726 -148.13379321 438.88259726 -147.9375 440.875 C-145.64908144 446.06208207 -141.01679731 450.09796833 -137 454 C-138.65 453.67 -140.3 453.34 -142 453 C-138.06810405 462.60058029 -131.68151998 470.62658421 -125.55078125 478.89599609 C-123.33212689 481.90612885 -121.16467553 484.95087682 -119 488 C-117.68 487.34 -116.36 486.68 -115 486 C-114.79246094 486.66644531 -114.58492188 487.33289063 -114.37109375 488.01953125 C-111.8973919 495.41993636 -108.51381776 501.64501973 -104 508 C-103.35417969 508.928125 -102.70835937 509.85625 -102.04296875 510.8125 C-100.25759148 513.17461607 -100.25759148 513.17461607 -97.95703125 513.3203125 C-97.24933594 513.25585938 -96.54164063 513.19140625 -95.8125 513.125 C-92.32902042 513.30714272 -91.27084335 513.72726264 -88.765625 516.25 C-87.27271349 518.19819658 -85.79524552 520.15830769 -84.33203125 522.12890625 C-79.7294601 527.79538832 -73.79852813 531.48068727 -67 534 C-68.32 535.98 -69.64 537.96 -71 540 C-70.23816406 540.36351562 -69.47632813 540.72703125 -68.69140625 541.1015625 C-62.83674252 543.95214784 -57.39070712 546.96045272 -52.046875 550.67578125 C-49.15736894 552.54513727 -46.20837573 553.77126036 -43 555 C-43.99 552.03 -43.99 552.03 -45 549 C-41.77352331 550.40760992 -39.74419173 552.0696967 -37.34765625 554.6328125 C-17.50001201 575.45164515 1.12746652 580.20738931 29.01464844 585.35229492 C30.0152832 585.54025635 31.01591797 585.72821777 32.046875 585.921875 C32.93213867 586.08268555 33.81740234 586.24349609 34.72949219 586.40917969 C37 587 37 587 40 589 C0.80116745 589.57993038 -33.1534246 583.67627437 -68 565 C-69.06831055 564.43974121 -69.06831055 564.43974121 -70.15820312 563.86816406 C-96.28821842 550.14019015 -118.749367 531.42284047 -139.5625 510.625 C-140.44357422 509.75617188 -141.32464844 508.88734375 -142.23242188 507.9921875 C-148.25967276 501.97828109 -153.73428873 495.68759834 -159 489 C-159.58064209 488.26797363 -160.16128418 487.53594727 -160.75952148 486.78173828 C-203.93209523 431.93471458 -229.39542053 365.75049789 -229.07516479 295.63392067 C-229.06221737 292.76950464 -229.05583984 289.90513578 -229.05102539 287.04069519 C-229.0396908 280.96460872 -229.02044071 274.88856177 -229 268.8125 C-228.97629657 261.75319878 -228.95594949 254.69392009 -228.94406128 247.63458824 C-228.93763511 244.82852996 -228.92513282 242.0225424 -228.91235352 239.21650696 C-228.90777342 237.48003417 -228.90439215 235.7435577 -228.90234375 234.00708008 C-228.90135524 233.1911375 -228.90036673 232.37519493 -228.89934826 231.53452682 C-228.91636486 227.39203223 -229.10184376 223.37725663 -229.63989258 219.26269531 C-230.19019684 214.73440589 -229.35332585 211.28288905 -227.82421875 207.02734375 C-227.58352158 206.30974884 -227.3428244 205.59215393 -227.09483337 204.85281372 C-226.31242122 202.54027667 -225.50133084 200.23914805 -224.6875 197.9375 C-224.1343443 196.33096069 -223.58210674 194.72410497 -223.03076172 193.11694336 C-218.75525346 180.75284389 -214.14896067 168.53124968 -209.04150391 156.48486328 C-208.08785509 154.20960831 -207.18326178 151.92168821 -206.29296875 149.62109375 C-205.80441406 148.42613281 -205.31585938 147.23117188 -204.8125 146 C-204.42707031 145.030625 -204.04164063 144.06125 -203.64453125 143.0625 C-201.2355805 140.04129811 -198.71174307 140.47079867 -195 140 C-193.84942637 138.29712773 -193.84942637 138.29712773 -193 136 C-192.57726807 135.06365723 -192.15453613 134.12731445 -191.71899414 133.16259766 C-191.00924438 131.55457275 -191.00924438 131.55457275 -190.28515625 129.9140625 C-189.76373047 128.73585937 -189.24230469 127.55765625 -188.70507812 126.34375 C-187.88403674 124.48556501 -187.0634603 122.62717648 -186.2434082 120.76855469 C-185.44605756 118.96234566 -184.64687364 117.1569463 -183.84765625 115.3515625 C-183.1362146 113.74015381 -183.1362146 113.74015381 -182.41040039 112.09619141 C-181.7122522 110.56357666 -181.7122522 110.56357666 -181 109 C-180.50814209 107.89962402 -180.01628418 106.79924805 -179.50952148 105.66552734 C-178 103 -178 103 -175 102 C-173.85167778 100.04494633 -173.85167778 100.04494633 -172.875 97.625 C-166.51125253 84.33099934 -154.31173859 73.37251754 -143.19921875 63.9140625 C-139.63505244 60.81203499 -136.19468454 57.57522267 -132.74243164 54.34960938 C-129.25587215 51.10709302 -125.68233162 48.01884845 -122 45 C-122 46.32 -122 47.64 -122 49 C-121.09121094 48.31035156 -120.18242188 47.62070313 -119.24609375 46.91015625 C-98.3400383 31.20459811 -75.4415474 20.20435608 -51.5 9.875 C-50.72611938 9.53917908 -49.95223877 9.20335815 -49.15490723 8.85736084 C-46.9294788 7.8943953 -44.70000961 6.9415518 -42.46875 5.9921875 C-41.47152924 5.56015015 -41.47152924 5.56015015 -40.4541626 5.11938477 C-36.64856078 3.51787131 -33.09803667 2.50633028 -29 2 C-29 2.33 -29 2.66 -29 3 C-23.35046672 2.58475384 -17.81348223 2.02550415 -12.25 0.9375 C-8.05885563 0.12572885 -4.25964928 -0.18931775 0 0 Z " fill="#D70650" transform="translate(245,17)"/>
<path d="M0 0 C3.39657005 3.97291112 5.88608487 8.12601698 8.375 12.6875 C11.45840242 18.26966467 14.62125824 23.77111751 18.00390625 29.1796875 C19 31 19 31 19 33 C13.05134883 30.61518039 9.76889777 24.9332727 6 20 C4.79537109 18.45892578 4.79537109 18.45892578 3.56640625 16.88671875 C-1.97334361 9.33076876 -1.97334361 9.33076876 -2.05078125 5.46484375 C-1.5 3.25 -1.5 3.25 0 0 Z " fill="#D8064F" transform="translate(189,339)"/>
<path d="M0 0 C-5.64893617 7.06117021 -5.64893617 7.06117021 -9 9 C-16.31028425 8.98955674 -22.75349197 6.60375463 -29 3 C-28.67 2.34 -28.34 1.68 -28 1 C-24.27091231 0.83153467 -20.54171841 0.66554419 -16.8125 0.5 C-15.75740234 0.45230469 -14.70230469 0.40460938 -13.61523438 0.35546875 C-12.08286133 0.28779297 -12.08286133 0.28779297 -10.51953125 0.21875 C-9.58214111 0.17685547 -8.64475098 0.13496094 -7.67895508 0.09179688 C-5.11673177 0.00399992 -2.56347632 -0.01626313 0 0 Z " fill="#D60650" transform="translate(321,325)"/>
<path d="M0 0 C1.90435329 5.41237251 -0.77004558 10.02018605 -3 15 C-5.20410948 19.08325409 -7.55150847 23.05902908 -10 27 C-10.598125 26.525625 -11.19625 26.05125 -11.8125 25.5625 C-14.00382924 23.83534256 -14.00382924 23.83534256 -17 23 C-17.89158077 17.35332181 -15.5290738 13.91521981 -12.703125 9.26953125 C-10.99788711 6.99718443 -9.35126168 5.5692116 -7 4 C-8.6658292 10.16356805 -11.87805286 15.48259656 -15 21 C-8.31135277 18.54294591 -6.15546324 14.20493289 -3.22241211 8.04052734 C-2.00415132 5.39145663 -0.92249703 2.76749109 0 0 Z " fill="#D8064F" transform="translate(360,287)"/>
<path d="M0 0 C1.35309286 4.4661396 0.4709491 8.33023824 -0.4375 12.8125 C-0.61361816 13.68326172 -0.78973633 14.55402344 -0.97119141 15.45117188 C-4.22118745 30.49873354 -9.38285329 45.58343478 -17 59 C-18.36387598 54.90837207 -16.70942655 52.73531819 -14.9375 49.0625 C-8.54837557 35.12871997 -4.87209257 20.39310751 -1.76171875 5.4296875 C-1 2 -1 2 0 0 Z " fill="#D80553" transform="translate(474,280)"/>
<path d="M0 0 C2.97 0.495 2.97 0.495 6 1 C5.63164226 7.13929569 4.28289877 9.81670353 0 14 C-1.32 14.33 -2.64 14.66 -4 15 C-2.68 10.05 -1.36 5.1 0 0 Z " fill="#D8064F" transform="translate(28,140)"/>
<path d="M0 0 C0.99 0.33 1.98 0.66 3 1 C3 5.62 3 10.24 3 15 C2.01 15 1.02 15 0 15 C-3.41356674 7.12253829 -3.41356674 7.12253829 -1.6875 2.4375 C-1.130625 1.633125 -0.57375 0.82875 0 0 Z " fill="#D70651" transform="translate(366,250)"/>
<path d="M0 0 C0.66 0.33 1.32 0.66 2 1 C1.38398318 3.96046916 0.75766298 6.9180858 0.125 9.875 C-0.04902344 10.71675781 -0.22304687 11.55851563 -0.40234375 12.42578125 C-0.57636719 13.23144531 -0.75039062 14.03710938 -0.9296875 14.8671875 C-1.08679199 15.61081543 -1.24389648 16.35444336 -1.40576172 17.12060547 C-2 19 -2 19 -4 21 C-5.32108443 12.198076 -4.98691972 7.48037958 0 0 Z " fill="#D8064F" transform="translate(16,185)"/>
<path d="M0 0 C0.66 0 1.32 0 2 0 C12 17.83333333 12 17.83333333 12 22 C11.34 22 10.68 22 10 22 C8.69964229 19.65028386 7.40970531 17.29575663 6.125 14.9375 C5.76019531 14.28072266 5.39539063 13.62394531 5.01953125 12.94726562 C2.71453531 8.6935004 1.1610836 4.69933309 0 0 Z " fill="#D8054E" transform="translate(196,326)"/>
<path d="M0 0 C0 0.33 0 0.66 0 1 C-1.95292969 1.19916016 -1.95292969 1.19916016 -3.9453125 1.40234375 C-5.67188513 1.58063114 -7.39844707 1.75902202 -9.125 1.9375 C-9.9809375 2.02451172 -10.836875 2.11152344 -11.71875 2.20117188 C-15.33827694 2.57704583 -18.85868003 2.97151067 -22.4296875 3.69140625 C-25 4 -25 4 -28 2 C-18.61304896 0.66581407 -9.50904899 -0.32417212 0 0 Z " fill="#D80652" transform="translate(285,13)"/>
</svg>
